<svg width="80" height="25" viewBox="0 0 80 25" fill="none" xmlns="http://www.w3.org/2000/svg">
<path d="M35.6991 13.8432C37.2333 9.86717 38.7987 6.91375 41.7151 6.31462C41.7151 6.31462 46.4532 5.62192 46.4532 3.36123C46.4532 1.10053 44.0307 0.706376 41.7151 0.46562C35.2906 -0.202336 33.3102 6.60089 31.5519 10.5478L35.697 13.8486L35.6991 13.8432Z" fill="#333333"/>
<path d="M26.9564 10.1279C27.6398 11.7088 28.3804 12.8321 29.3309 12.8321C30.2357 12.8321 30.8474 12.1292 31.5519 10.5478L35.697 13.8486C34.1163 17.9451 32.5374 21.761 29.1325 21.761C26.4321 21.761 24.7075 19.7556 23.561 17.3986L26.9564 10.1279Z" fill="#404040"/>
<path d="M21.1882 0.0457588C19.2652 0.20882 18.0493 2.97625 16.9819 5.89476L21.1882 10.1279C21.5924 10.918 22.12 14.436 23.561 17.3986L26.9564 10.1279C25.3661 6.44882 24.0855 0.29143 21.1882 0.0457588Z" fill="#D37A38"/>
<path d="M21.1882 10.1278C20.4625 11.5465 19.3148 21.7607 13.2203 21.7607L13.0218 12.8319C14.7163 12.8319 15.7502 9.26277 16.9819 5.89476L21.1882 10.1278Z" fill="#D0483A"/>
<path d="M13.2203 21.7607C9.81539 21.7607 8.17945 17.525 6.59873 13.4286L8.89599 5.89465C10.5466 9.26662 11.4097 12.8319 13.0218 12.8319L13.2203 21.7607Z" fill="#377695"/>
<path d="M6.59689 13.4238C5.06254 9.44745 3.49896 -0.244814 0.5 0.0457588C4.91174 -0.412933 7.30843 2.6514 8.89599 5.89465L6.59689 13.4238Z" fill="#333333"/>
<path d="M41.8768 2.74761C41.8768 3.63943 41.1515 4.36239 40.2567 4.36239C39.362 4.36239 38.6367 3.63943 38.6367 2.74761C38.6367 1.85579 39.362 1.13282 40.2567 1.13282C41.1515 1.13282 41.8768 1.85579 41.8768 2.74761Z" fill="#FAFAFA"/>
<path d="M40.1609 21.7673H38.0013V13.3228H38.5234L39.2353 14.3241C39.5834 14.0088 39.9789 13.767 40.4219 13.5987C40.8649 13.4253 41.3237 13.3386 41.7984 13.3386H43.7048V15.4832H41.7984C41.5716 15.4832 41.358 15.5252 41.1576 15.6093C40.9572 15.6934 40.7832 15.8091 40.6355 15.9563C40.4878 16.1034 40.3718 16.2769 40.2874 16.4767C40.2031 16.6764 40.1609 16.8893 40.1609 17.1153V21.7673Z" fill="#333333"/>
<path d="M47.2566 11.0283C47.2566 11.2281 47.2171 11.4147 47.138 11.5882C47.0641 11.7616 46.9613 11.9141 46.8295 12.0455C46.6976 12.1716 46.542 12.2741 46.3627 12.353C46.1887 12.4266 46.0015 12.4634 45.8011 12.4634C45.6007 12.4634 45.4108 12.4266 45.2315 12.353C45.0575 12.2741 44.9046 12.1716 44.7727 12.0455C44.6461 11.9141 44.5433 11.7616 44.4642 11.5882C44.3904 11.4147 44.3535 11.2281 44.3535 11.0283C44.3535 10.8339 44.3904 10.6499 44.4642 10.4764C44.5433 10.2977 44.6461 10.1453 44.7727 10.0191C44.9046 9.88769 45.0575 9.78519 45.2315 9.7116C45.4108 9.63275 45.6007 9.59333 45.8011 9.59333C46.0015 9.59333 46.1887 9.63275 46.3627 9.7116C46.542 9.78519 46.6976 9.88769 46.8295 10.0191C46.9613 10.1453 47.0641 10.2977 47.138 10.4764C47.2171 10.6499 47.2566 10.8339 47.2566 11.0283ZM46.8848 21.7673H44.7094V13.3228H46.8848V21.7673Z" fill="#333333"/>
<path d="M54.566 17.4701C54.566 17.1758 54.508 16.8919 54.3919 16.6186C54.2812 16.34 54.1282 16.0956 53.9331 15.8853C53.738 15.6698 53.5086 15.499 53.2449 15.3728C52.9865 15.2414 52.7096 15.1757 52.4143 15.1757C52.119 15.1757 51.8395 15.2256 51.5758 15.3255C51.3174 15.4254 51.0906 15.5725 50.8955 15.767C50.7056 15.9615 50.5553 16.2033 50.4446 16.4924C50.3338 16.7763 50.2785 17.1022 50.2785 17.4701C50.2785 17.8223 50.3338 18.1403 50.4446 18.4242C50.5553 18.7028 50.7056 18.9419 50.8955 19.1417C51.0906 19.3414 51.3174 19.4965 51.5758 19.6069C51.8395 19.712 52.119 19.7646 52.4143 19.7646C52.7096 19.7646 52.9865 19.7015 53.2449 19.5753C53.5086 19.4439 53.738 19.2731 53.9331 19.0628C54.1282 18.8473 54.2812 18.6029 54.3919 18.3296C54.508 18.051 54.566 17.7645 54.566 17.4701ZM56.7414 20.7028C56.7414 21.2968 56.628 21.854 56.4012 22.3744C56.1744 22.8948 55.8633 23.3495 55.4678 23.7385C55.0775 24.1274 54.6187 24.4349 54.0913 24.661C53.5692 24.887 53.0102 25 52.4143 25L51.3306 24.9842V22.8317L52.3985 22.8475C52.736 22.8475 53.0234 22.8028 53.2607 22.7134C53.498 22.6293 53.6984 22.5111 53.8619 22.3586C54.0254 22.2114 54.1546 22.0406 54.2495 21.8461C54.3497 21.6516 54.4289 21.4466 54.4869 21.2311C54.4025 21.3678 54.2812 21.4808 54.123 21.5702C53.9648 21.6543 53.7881 21.7226 53.593 21.7752C53.4031 21.833 53.2027 21.8724 52.9918 21.8934C52.7861 21.9145 52.5936 21.925 52.4143 21.925C51.8184 21.925 51.2567 21.8225 50.7294 21.6175C50.2073 21.4125 49.7484 21.1207 49.3529 20.7423C48.9627 20.3585 48.6542 19.8907 48.4274 19.3388C48.2006 18.7869 48.0872 18.164 48.0872 17.4701C48.0872 16.8341 48.2006 16.2427 48.4274 15.6961C48.6542 15.1494 48.9627 14.6763 49.3529 14.2768C49.7484 13.8773 50.2073 13.5646 50.7294 13.3386C51.2567 13.1125 51.8184 12.9995 52.4143 12.9995C52.6885 12.9995 52.9601 13.0337 53.2291 13.102C53.498 13.1703 53.7591 13.265 54.0122 13.3859C54.2654 13.5068 54.5053 13.6487 54.7321 13.8116C54.9641 13.9746 55.1804 14.1507 55.3808 14.3399L56.2193 13.3386H56.7414V20.7028Z" fill="#333333"/>
<path d="M64.4225 17.4701C64.4225 17.1758 64.3645 16.8919 64.2485 16.6186C64.1377 16.34 63.9848 16.0956 63.7897 15.8853C63.5945 15.6698 63.3651 15.499 63.1014 15.3728C62.843 15.2414 62.5662 15.1757 62.2708 15.1757C61.9755 15.1757 61.696 15.2256 61.4323 15.3255C61.1739 15.4254 60.9471 15.5725 60.752 15.767C60.5622 15.9615 60.4119 16.2033 60.3011 16.4924C60.1904 16.7763 60.135 17.1022 60.135 17.4701C60.135 17.8223 60.1904 18.1403 60.3011 18.4242C60.4119 18.7028 60.5622 18.9419 60.752 19.1417C60.9471 19.3414 61.1739 19.4965 61.4323 19.6069C61.696 19.712 61.9755 19.7646 62.2708 19.7646C62.5662 19.7646 62.843 19.7015 63.1014 19.5753C63.3651 19.4439 63.5945 19.2731 63.7897 19.0628C63.9848 18.8473 64.1377 18.6029 64.2485 18.3296C64.3645 18.051 64.4225 17.7645 64.4225 17.4701ZM66.5979 20.7028C66.5979 21.2968 66.4845 21.854 66.2577 22.3744C66.031 22.8948 65.7198 23.3495 65.3243 23.7385C64.9341 24.1274 64.4752 24.4349 63.9479 24.661C63.4258 24.887 62.8668 25 62.2708 25L61.1871 24.9842V22.8317L62.255 22.8475C62.5925 22.8475 62.8799 22.8028 63.1173 22.7134C63.3546 22.6293 63.555 22.5111 63.7185 22.3586C63.8819 22.2114 64.0112 22.0406 64.1061 21.8461C64.2063 21.6516 64.2854 21.4466 64.3434 21.2311C64.259 21.3678 64.1377 21.4808 63.9795 21.5702C63.8213 21.6543 63.6446 21.7226 63.4495 21.7752C63.2597 21.833 63.0593 21.8724 62.8483 21.8934C62.6426 21.9145 62.4501 21.925 62.2708 21.925C61.6749 21.925 61.1133 21.8225 60.5859 21.6175C60.0638 21.4125 59.605 21.1207 59.2095 20.7423C58.8192 20.3585 58.5107 19.8907 58.2839 19.3388C58.0572 18.7869 57.9438 18.164 57.9438 17.4701C57.9438 16.8341 58.0572 16.2427 58.2839 15.6961C58.5107 15.1494 58.8192 14.6763 59.2095 14.2768C59.605 13.8773 60.0638 13.5646 60.5859 13.3386C61.1133 13.1125 61.6749 12.9995 62.2708 12.9995C62.5451 12.9995 62.8167 13.0337 63.0856 13.102C63.3546 13.1703 63.6156 13.265 63.8688 13.3859C64.1219 13.5068 64.3619 13.6487 64.5886 13.8116C64.8207 13.9746 65.0369 14.1507 65.2373 14.3399L66.0758 13.3386H66.5979V20.7028Z" fill="#333333"/>
<path d="M70.4266 21.7673H68.2512V9.96391H70.4266V21.7673Z" fill="#333333"/>
<path d="M75.4498 19.7015C75.5342 19.7278 75.6186 19.7462 75.7029 19.7567C75.7873 19.7619 75.8717 19.7646 75.9561 19.7646C76.167 19.7646 76.3701 19.7357 76.5652 19.6778C76.7603 19.62 76.9423 19.5385 77.111 19.4334C77.285 19.323 77.438 19.1916 77.5698 19.0392C77.7069 18.8815 77.8177 18.708 77.9021 18.5188L79.4842 20.1036C79.2838 20.3875 79.0517 20.6424 78.788 20.8684C78.5296 21.0945 78.2475 21.2863 77.9416 21.444C77.641 21.6017 77.322 21.72 76.9844 21.7988C76.6522 21.8829 76.3094 21.925 75.9561 21.925C75.3601 21.925 74.7985 21.8146 74.2711 21.5938C73.749 21.373 73.2902 21.0655 72.8947 20.6713C72.5044 20.2771 72.1959 19.8092 71.9692 19.2678C71.7424 18.7212 71.629 18.1219 71.629 17.4701C71.629 16.8026 71.7424 16.1928 71.9692 15.6409C72.1959 15.089 72.5044 14.6185 72.8947 14.2295C73.2902 13.8405 73.749 13.5383 74.2711 13.3228C74.7985 13.1073 75.3601 12.9995 75.9561 12.9995C76.3094 12.9995 76.6548 13.0416 76.9924 13.1257C77.3299 13.2098 77.6489 13.3307 77.9495 13.4884C78.2554 13.6461 78.5402 13.8405 78.8039 14.0718C79.0676 14.2979 79.2996 14.5528 79.5 14.8366L75.4498 19.7015ZM76.5573 15.2624C76.4571 15.2256 76.3569 15.202 76.2567 15.1915C76.1617 15.1809 76.0615 15.1757 75.9561 15.1757C75.6607 15.1757 75.3812 15.2309 75.1176 15.3413C74.8591 15.4464 74.6324 15.5988 74.4373 15.7986C74.2474 15.9983 74.0971 16.2401 73.9863 16.524C73.8756 16.8026 73.8202 17.1179 73.8202 17.4701C73.8202 17.549 73.8229 17.6383 73.8281 17.7382C73.8387 17.8381 73.8519 17.9406 73.8677 18.0457C73.8888 18.1456 73.9125 18.2428 73.9389 18.3374C73.9653 18.4321 73.9995 18.5162 74.0417 18.5898L76.5573 15.2624Z" fill="#333333"/>
</svg>
