<svg width="710" height="337" viewBox="0 0 710 337" fill="none" xmlns="http://www.w3.org/2000/svg">
<path d="M543.169 214.32C566.845 152.763 591 107.038 636.004 97.7627C636.004 97.7627 709.119 87.0383 709.119 52.0383C709.119 17.0383 671.737 10.9361 636.004 7.20871C536.865 -3.13255 506.305 102.195 479.173 163.3L543.137 214.403L543.169 214.32Z" fill="#333333"/>
<path d="M408.258 156.8C418.804 181.275 430.231 198.667 444.9 198.667C458.861 198.667 468.302 187.783 479.173 163.3L543.137 214.403C518.744 277.825 494.38 336.902 441.838 336.902C400.167 336.902 373.554 305.855 355.862 269.364L408.258 156.8Z" fill="#333333"/>
<path d="M319.247 0.708436C289.572 3.23294 270.809 46.0782 254.338 91.2624L319.247 156.8C325.483 169.032 333.626 223.498 355.862 269.364L408.258 156.8C383.718 99.8403 363.956 4.5119 319.247 0.708436Z" fill="#D37A38"/>
<path d="M319.247 156.799C308.049 178.763 290.338 336.899 196.291 336.899L193.228 198.663C219.376 198.663 235.33 143.406 254.338 91.2624L319.247 156.799Z" fill="#D0483A"/>
<path d="M196.291 336.899C143.749 336.899 118.504 271.322 94.1116 207.901L129.561 91.2607C155.032 143.465 168.351 198.663 193.228 198.663L196.291 336.899Z" fill="#377695"/>
<path d="M94.0833 207.826C70.4061 146.265 46.2781 -3.79021 0 0.708436C68.0791 -6.393 105.063 41.0488 129.561 91.2607L94.0833 207.826Z" fill="#333333"/>
<path d="M638.5 42.5383C638.5 56.3454 627.307 67.5383 613.5 67.5383C599.693 67.5383 588.5 56.3454 588.5 42.5383C588.5 28.7312 599.693 17.5383 613.5 17.5383C627.307 17.5383 638.5 28.7312 638.5 42.5383Z" fill="#FAFAFA"/>
</svg>
