<svg width="236" height="222" viewBox="0 0 236 222" fill="none" xmlns="http://www.w3.org/2000/svg">
<path d="M69.6001 207.82C93.2757 146.263 117.431 100.538 162.435 91.2624C162.435 91.2624 235.55 80.538 235.55 45.538C235.55 10.538 198.168 4.43577 162.435 0.708404C63.2966 -9.63286 32.7362 95.6944 5.60378 156.8C-21.5287 217.905 58.0691 237.736 69.5684 207.902C69.5808 207.87 69.6001 207.82 69.6001 207.82Z" fill="#333333"/>
<path d="M164.931 36.038C164.931 49.8451 153.738 61.038 139.931 61.038C126.124 61.038 114.931 49.8451 114.931 36.038C114.931 22.2309 126.124 11.038 139.931 11.038C153.738 11.038 164.931 22.2309 164.931 36.038Z" fill="#FAFAFA"/>
</svg>
